<svg xmlns="http://www.w3.org/2000/svg" viewBox="0 0 24 24" fill="#25D366" aria-hidden="true">
  <path d="M12.04 2.003a9.94 9.94 0 0 0-8.6 14.92L2 22l5.21-1.36a9.94 9.94 0 0 0 4.83 1.23h.01a9.94 9.94 0 0 0 9.94-9.95 9.85 9.85 0 0 0-2.91-7.04 9.83 9.83 0 0 0-7.04-2.88zm0 18.13h-.01a8.25 8.25 0 0 1-4.21-1.15l-.3-.18-3.1.81.83-3.02-.2-.31a8.27 8.27 0 1 1 6.99 3.85zm4.53-6.18c-.25-.13-1.46-.72-1.69-.8-.23-.08-.39-.13-.56.13-.16.25-.64.8-.78.96-.14.17-.29.19-.54.06-.25-.12-1.05-.39-2-1.23a7.5 7.5 0 0 1-1.39-1.72c-.14-.25-.02-.38.11-.51.11-.11.25-.29.37-.43.13-.14.16-.25.25-.41.08-.17.04-.31-.02-.43-.06-.13-.56-1.36-.78-1.86-.2-.49-.41-.42-.56-.43-.14-.01-.31-.01-.48-.01-.17 0-.43.06-.66.31-.23.25-.86.84-.86 2.05 0 1.21.88 2.38 1 2.55.13.17 1.74 2.66 4.21 3.74.59.25 1.05.41 1.41.52.59.19 1.13.16 1.55.1.47-.07 1.46-.6 1.66-1.17.21-.58.21-1.07.14-1.17-.06-.1-.23-.16-.48-.29z"/>
</svg>
