<?xml version="1.0" encoding="UTF-8"?>
<svg id="Layer_1" data-name="Layer 1" xmlns="http://www.w3.org/2000/svg" viewBox="0 0 219.78 79.53">
  <g>
    <path d="M40,27.6c-.28,1.59-.43,3.21-.43,4.87,0,1.75.14,3.71.43,5.89-2.52.99-5.37,1.78-8.55,2.38-3.18.6-6.22.9-9.12.9-4.48,0-8.41-.88-11.79-2.63-3.39-1.75-5.99-4.19-7.81-7.31-1.82-3.12-2.73-6.66-2.73-10.63s.98-7.74,2.93-10.94c1.95-3.2,4.68-5.68,8.17-7.45,3.49-1.77,7.91-2.66,13.26-2.66,2.18,0,4.19.14,6.03.43,1.84.28,4.24.85,7.2,1.71l2.42.65c-.5,2.01-.9,4.82-1.2,8.42h-1.79v-1.88c0-1.86-.15-2.95-.46-3.27-.57-.61-2.08-1.36-4.52-2.26s-5.25-1.35-8.39-1.35c-5.58,0-9.84,1.5-12.8,4.5-3.22,3.26-4.84,7.58-4.84,12.95s1.45,9.5,4.35,13.03c3.41,4.17,8.07,6.26,13.97,6.26,3.07,0,6.4-.67,9.99-2.02.11-1.6.17-3.3.17-5.1,0-2.34-.04-3.68-.11-4.04-.08-.35-.21-.58-.41-.68s-1.19-.23-2.97-.39l-3.36-.29v-1.79c4.34.19,7.57.28,9.67.28,1.82,0,3.39-.09,4.69-.28v1.42l-1.99,1.31Z" fill="#1d1d1b"/>
    <path d="M73.61,27.4h-16.46l-1.93,4.58c-1.27,3.04-1.91,4.89-1.91,5.58,0,.44.12.75.36.94.24.19.84.34,1.81.46l2.73.31v1.79c-1.82-.13-3.87-.2-6.15-.2-2.73,0-5.13.07-7.2.2v-1.79l.85-.03c1.33-.04,2.19-.18,2.57-.41.39-.24.8-.82,1.24-1.75,1.35-2.73,2.72-5.68,4.13-8.85l7.82-17.73c2.09-4.7,3.51-8.12,4.27-10.24h1.93l14.4,33.49c.97,2.28,1.61,3.65,1.93,4.11.32.46.69.8,1.11,1,.42.2,1.36.34,2.82.41v1.79c-2.47-.13-4.82-.2-7.06-.2-2.09,0-4.87.07-8.34.2v-1.79l2.82-.17c1-.08,1.6-.18,1.79-.31.28-.21.43-.47.43-.8,0-.34-.28-1.23-.85-2.67l-3.12-7.91ZM58.21,25.07h14.33l-7.16-17.09-7.17,17.09Z" fill="#1d1d1b"/>
    <path d="M132.16,6.71l-8.46,17.6c-3.17,6.61-5.77,12.38-7.8,17.31h-1.14c-.7-1.69-2.71-6.03-6.04-13.02l-10.19-21.1v22c0,5.12.21,8.03.61,8.72.41.69,1.68,1.04,3.82,1.04h1.06v1.79c-2.64-.13-4.79-.2-6.44-.2-1.2,0-3.58.07-7.16.2v-1.79h1.85c1.25,0,2.09-.18,2.5-.54.42-.36.67-1.01.77-1.96.25-2.66.37-5.52.37-8.59V12.06c0-3.89-.08-6.46-.26-7.71-.08-.64-.36-1.14-.84-1.48s-1.45-.51-2.89-.51h-1.51V.57c3.3.13,5.38.2,6.23.2,1.08,0,2.62-.07,4.61-.2,2.3,5.11,4.95,10.73,7.95,16.88l7.49,15.4,6.92-14.26c2.43-4.99,5.2-11,8.31-18.02,2.37.13,4.04.2,5.01.2,1.12,0,3.14-.07,6.06-.2v1.79h-1.86c-1.68,0-2.7.29-3.07.87-.37.58-.56,2.66-.56,6.25v20.8c0,4.63.2,7.28.59,7.97.39.68,1.48,1.02,3.28,1.02h1.63v1.79c-2.64-.13-5.16-.2-7.57-.2-2.66,0-5.43.07-8.34.2v-1.79h1.88c1.5,0,2.4-.33,2.72-.98s.47-3.47.47-8.44V6.71Z" fill="#1d1d1b"/>
    <path d="M145.5,20.8c0-6.24,2.01-11.27,6.04-15.08,4.02-3.81,9.39-5.72,16.09-5.72s11.71,1.77,15.44,5.31c3.73,3.54,5.59,8.24,5.59,14.1,0,6.32-2.16,11.6-6.49,15.85-4.33,4.25-9.78,6.37-16.37,6.37-4.12,0-7.67-.83-10.65-2.5-2.98-1.67-5.33-4.11-7.06-7.31-1.73-3.21-2.59-6.88-2.59-11.01ZM151.27,18.46c0,4.29.74,8.02,2.21,11.2,1.47,3.18,3.44,5.56,5.91,7.14,2.47,1.58,5.29,2.38,8.46,2.38,2.94,0,5.51-.67,7.72-2.02,2.2-1.35,3.93-3.36,5.2-6.03,1.26-2.67,1.89-5.93,1.89-9.76,0-4.02-.7-7.46-2.09-10.31-1.4-2.85-3.31-5-5.74-6.44-2.43-1.44-5.31-2.16-8.63-2.16-3.04,0-5.66.64-7.86,1.91-2.2,1.27-3.93,3.13-5.18,5.59-1.25,2.46-1.88,5.3-1.88,8.52Z" fill="#1d1d1b"/>
    <path d="M217.31,2.48c-.53,1.97-.82,4.59-.85,7.85h-1.96v-2.28c0-1.48-.2-2.48-.6-3.02-.4-.53-1.44-1.1-3.12-1.69-1.68-.6-3.45-.9-5.31-.9-3.04,0-5.42.77-7.16,2.3-1.74,1.53-2.6,3.5-2.6,5.91,0,1.52.36,2.82,1.07,3.91.71,1.09,1.67,1.88,2.87,2.36s3.76.91,7.67,1.28c3.91.38,6.55.88,7.92,1.51,1.38.63,2.48,1.63,3.3,3.02s1.24,3.03,1.24,4.92c0,3.81-1.59,7.1-4.78,9.85-3.19,2.75-7.44,4.13-12.75,4.13-1.82,0-3.66-.19-5.5-.55-1.85-.37-3.71-.92-5.59-1.64.34-2.28.5-5.2.48-8.76h1.93v1.42c0,1.84.09,2.98.28,3.41s.64.9,1.34,1.39c1.04.74,2.29,1.3,3.73,1.69s3,.58,4.67.58c3.58,0,6.35-.84,8.31-2.53,1.95-1.69,2.93-3.83,2.93-6.43,0-1.52-.33-2.8-1-3.86s-1.59-1.83-2.79-2.35c-1.19-.51-3.4-.9-6.63-1.17-4.29-.34-7.2-.85-8.73-1.54-1.54-.68-2.74-1.76-3.61-3.23-.87-1.47-1.31-3.3-1.31-5.48,0-3.7,1.34-6.72,4.01-9.08,2.67-2.35,6.37-3.53,11.1-3.53,1.9,0,3.8.2,5.7.61,1.91.41,3.82,1.03,5.73,1.86Z" fill="#1d1d1b"/>
  </g>
  <g>
    <path d="M60.3,78.24c-.36,0-.64-.1-.83-.3-.19-.2-.29-.47-.29-.82v-17.31c0-.36.08-.64.24-.84.16-.2.41-.31.73-.34,1.93-.17,4.15-.26,6.64-.26,1.73,0,3.18.16,4.34.48,1.16.32,2.09.81,2.8,1.47.7.66,1.22,1.53,1.54,2.61.32,1.08.49,2.48.49,4.2v9.99c0,.35-.1.62-.3.82s-.47.3-.82.3h-14.54ZM72.8,67.37c0-1.87-.17-3.23-.52-4.07s-.95-1.44-1.81-1.79c-.85-.35-2.1-.52-3.73-.52s-3.07.04-4.4.11v14.5h10.46v-8.23Z" fill="#1d1d1b"/>
    <path d="M84.38,69.61c0,.21-.12.36-.36.45-.24.09-.65.13-1.23.13s-.98-.04-1.22-.13c-.24-.09-.36-.24-.36-.45v-10.66c0-.21.12-.36.36-.45.24-.09.64-.13,1.22-.13s.98.04,1.23.13c.24.09.36.24.36.45v10.66Z" fill="#1d1d1b"/>
    <path d="M95.61,75.53c1.5-.15,2.62-.45,3.37-.91.75-.46,1.33-1.16,1.74-2.12.41-.96.7-2.32.88-4.07s.26-4.25.26-7.49v-2.04c0-.19.13-.32.38-.4.26-.08.66-.12,1.21-.12s.93.04,1.19.12c.26.08.38.22.38.4v2c0,3.85-.17,6.85-.52,8.98-.35,2.13-.92,3.79-1.72,4.99-.8,1.19-1.93,2.05-3.39,2.58-1.46.53-3.49.8-6.1.8h-5.13c-.2,0-.34-.1-.42-.31-.08-.21-.12-.53-.12-.98s.04-.8.13-1.02c.09-.22.22-.33.41-.33h4.27l-3.35-16.3c-.06-.29-.06-.49,0-.6s.2-.19.42-.24c.22-.05.57-.08,1.06-.08.7,0,1.15.03,1.37.09.21.06.35.24.41.52l3.27,16.52Z" fill="#1d1d1b"/>
    <path d="M113.33,77.77c0,.21-.12.36-.36.45-.24.09-.65.13-1.23.13s-.98-.04-1.22-.13c-.24-.09-.36-.24-.36-.45v-18.82c0-.21.12-.36.36-.45.24-.09.64-.13,1.22-.13s.98.04,1.23.13c.24.09.36.24.36.45v18.82Z" fill="#1d1d1b"/>
    <path d="M130.45,77.77c0,.21-.12.36-.36.45-.24.09-.64.13-1.22.13s-.98-.04-1.23-.13c-.24-.09-.37-.24-.37-.45v-11.28c0-1.46-.06-2.5-.18-3.12-.12-.62-.33-1.09-.65-1.43-.31-.34-.76-.58-1.36-.73-.59-.15-1.45-.22-2.57-.22-1.46,0-3.24.08-5.35.24-.2.01-.34-.07-.43-.25-.09-.18-.13-.5-.13-.96,0-.51.04-.86.12-1.05.08-.19.24-.29.48-.32,1.7-.19,3.5-.28,5.41-.28,1.58,0,2.87.13,3.86.4.99.27,1.78.68,2.36,1.24.58.56.99,1.32,1.24,2.27s.36,2.29.36,4.01v11.47Z" fill="#1d1d1b"/>
    <path d="M138.88,69.61c0,.21-.12.36-.36.45-.24.09-.65.13-1.23.13s-.98-.04-1.22-.13c-.24-.09-.36-.24-.36-.45v-10.66c0-.21.12-.36.36-.45.24-.09.64-.13,1.22-.13s.98.04,1.23.13c.24.09.36.24.36.45v10.66Z" fill="#1d1d1b"/>
    <path d="M160.08,62.21c0,.97-.06,1.77-.18,2.41-.12.63-.32,1.22-.61,1.78-.29.56-.69,1.16-1.21,1.81s-1.31,1.51-2.37,2.58l4.5,6.3c.15.2.25.36.31.49.06.12.08.23.08.32,0,.17-.12.3-.36.36s-.65.1-1.21.1c-.45,0-.81-.02-1.08-.05s-.49-.08-.66-.16c-.16-.07-.31-.2-.43-.37l-7.84-11.13c-.6.81-1.01,1.48-1.23,1.99-.22.52-.38,1.11-.47,1.78-.09.67-.13,1.78-.13,3.34v4.02c0,.21-.12.36-.36.45-.24.09-.65.13-1.21.13s-.98-.04-1.23-.13c-.24-.09-.36-.24-.36-.45v-3.93c0-1.78.09-3.13.26-4.03.17-.9.48-1.77.9-2.6s1.12-1.85,2.08-3.06l-3.21-4.55c-.14-.19-.23-.34-.28-.46-.05-.12-.07-.22-.07-.31,0-.17.12-.3.36-.36.24-.07.65-.1,1.23-.1.62,0,1.08.03,1.36.1.28.07.5.22.67.46l6.72,9.47c.93-.97,1.57-1.72,1.92-2.25.35-.52.59-1.08.74-1.66.14-.58.21-1.31.21-2.2v-3.35c0-.21.12-.36.37-.45.24-.09.65-.13,1.23-.13s.96.04,1.21.13c.24.09.37.24.37.45v3.26Z" fill="#1d1d1b"/>
  </g>
</svg>