<?xml version="1.0" encoding="UTF-8"?>
<svg id="Layer_1" data-name="Layer 1" xmlns="http://www.w3.org/2000/svg" viewBox="0 0 205.7 82.46">
  <g>
    <path d="M52.99,82.34c-.36,0-.64-.1-.83-.3-.19-.2-.29-.47-.29-.82v-17.31c0-.36.08-.64.24-.84.16-.2.41-.31.73-.34,1.93-.17,4.15-.26,6.64-.26,1.73,0,3.18.16,4.34.48,1.16.32,2.09.81,2.8,1.47.7.66,1.22,1.53,1.54,2.61.32,1.08.49,2.48.49,4.2v9.99c0,.35-.1.62-.3.82s-.47.3-.82.3h-14.54ZM65.49,71.47c0-1.87-.17-3.23-.52-4.07s-.95-1.44-1.81-1.79c-.85-.35-2.1-.52-3.73-.52s-3.07.04-4.4.11v14.5h10.46v-8.23Z" fill="#1d1d1b"/>
    <path d="M77.07,73.72c0,.21-.12.36-.36.45-.24.09-.65.13-1.23.13s-.98-.04-1.22-.13c-.24-.09-.36-.24-.36-.45v-10.66c0-.21.12-.36.36-.45.24-.09.64-.13,1.22-.13s.98.04,1.23.13c.24.09.36.24.36.45v10.66Z" fill="#1d1d1b"/>
    <path d="M88.3,79.63c1.5-.15,2.62-.45,3.37-.91.75-.46,1.33-1.16,1.74-2.12.41-.96.7-2.32.88-4.07s.26-4.25.26-7.49v-2.04c0-.19.13-.32.38-.4.26-.08.66-.12,1.21-.12s.93.04,1.19.12c.26.08.38.22.38.4v2c0,3.85-.17,6.85-.52,8.98-.35,2.13-.92,3.79-1.72,4.99-.8,1.19-1.93,2.05-3.39,2.58-1.46.53-3.49.8-6.1.8h-5.13c-.2,0-.34-.1-.42-.31-.08-.21-.12-.53-.12-.98s.04-.8.13-1.02c.09-.22.22-.33.41-.33h4.27l-3.35-16.3c-.06-.29-.06-.49,0-.6s.2-.19.42-.24c.22-.05.57-.08,1.06-.08.7,0,1.15.03,1.37.09.21.06.35.24.41.52l3.27,16.52Z" fill="#1d1d1b"/>
    <path d="M106.01,81.88c0,.21-.12.36-.36.45-.24.09-.65.13-1.23.13s-.98-.04-1.22-.13c-.24-.09-.36-.24-.36-.45v-18.82c0-.21.12-.36.36-.45.24-.09.64-.13,1.22-.13s.98.04,1.23.13c.24.09.36.24.36.45v18.82Z" fill="#1d1d1b"/>
    <path d="M123.13,81.88c0,.21-.12.36-.36.45-.24.09-.64.13-1.22.13s-.98-.04-1.23-.13c-.24-.09-.37-.24-.37-.45v-11.28c0-1.46-.06-2.5-.18-3.12-.12-.62-.33-1.09-.65-1.43-.31-.34-.76-.58-1.36-.73-.59-.15-1.45-.22-2.57-.22-1.46,0-3.24.08-5.35.24-.2.01-.34-.07-.43-.25-.09-.18-.13-.5-.13-.96,0-.51.04-.86.12-1.05.08-.19.24-.29.48-.32,1.7-.19,3.5-.28,5.41-.28,1.58,0,2.87.13,3.86.4.99.27,1.78.68,2.36,1.24.58.56.99,1.32,1.24,2.27s.36,2.29.36,4.01v11.47Z" fill="#1d1d1b"/>
    <path d="M131.57,73.72c0,.21-.12.36-.36.45-.24.09-.65.13-1.23.13s-.98-.04-1.22-.13c-.24-.09-.36-.24-.36-.45v-10.66c0-.21.12-.36.36-.45.24-.09.64-.13,1.22-.13s.98.04,1.23.13c.24.09.36.24.36.45v10.66Z" fill="#1d1d1b"/>
    <path d="M152.77,66.31c0,.97-.06,1.77-.18,2.41-.12.63-.32,1.22-.61,1.78-.29.56-.69,1.16-1.21,1.81s-1.31,1.51-2.37,2.58l4.5,6.3c.15.2.25.36.31.49.06.12.08.23.08.32,0,.17-.12.3-.36.36s-.65.1-1.21.1c-.45,0-.81-.02-1.08-.05s-.49-.08-.66-.16c-.16-.07-.31-.2-.43-.37l-7.84-11.13c-.6.81-1.01,1.48-1.23,1.99-.22.52-.38,1.11-.47,1.78-.09.67-.13,1.78-.13,3.34v4.02c0,.21-.12.36-.36.45-.24.09-.65.13-1.21.13s-.98-.04-1.23-.13c-.24-.09-.36-.24-.36-.45v-3.93c0-1.78.09-3.13.26-4.03.17-.9.48-1.77.9-2.6s1.12-1.85,2.08-3.06l-3.21-4.55c-.14-.19-.23-.34-.28-.46-.05-.12-.07-.22-.07-.31,0-.17.12-.3.36-.36.24-.07.65-.1,1.23-.1.62,0,1.08.03,1.36.1.28.07.5.22.67.46l6.72,9.47c.93-.97,1.57-1.72,1.92-2.25.35-.52.59-1.08.74-1.66.14-.58.21-1.31.21-2.2v-3.35c0-.21.12-.36.37-.45.24-.09.65-.13,1.23-.13s.96.04,1.21.13c.24.09.37.24.37.45v3.26Z" fill="#1d1d1b"/>
  </g>
  <g>
    <path d="M39.35,37.8c-.15.12-.67.47-1.56,1.07-.88.6-1.58,1.05-2.07,1.35-.5.31-1.29.74-2.36,1.3-1.08.56-2.09.98-3.05,1.27s-2.14.55-3.54.78c-1.4.23-2.85.35-4.35.35-6.68,0-12.09-2.09-16.22-6.28C2.06,33.44,0,28.21,0,21.95S2.12,10.42,6.37,6.25C10.61,2.08,16.29,0,23.39,0c4.3,0,9.22.92,14.75,2.77l1.15,9.39-.52.17c-2.77-4.03-5.35-6.9-7.75-8.61-2.4-1.71-5.12-2.56-8.15-2.56-5.07,0-8.93,1.93-11.58,5.79-2.65,3.86-3.98,8.88-3.98,15.07,0,4.03.5,7.56,1.5,10.57,1,3.02,2.65,5.46,4.96,7.35,2.3,1.88,5.19,2.82,8.64,2.82,3.23,0,5.8-.79,7.72-2.36,1.92-1.57,2.88-3.84,2.88-6.8,0-2.04-.18-3.71-.55-5.01-.37-1.31-1.07-2.82-2.1-4.55v-.12h11.29v.12c-.96,1.77-1.58,3.32-1.87,4.67-.29,1.34-.43,3.23-.43,5.65v3.46Z" fill="#1d1d1b"/>
    <path d="M49.61,43.04h-7.78v-.12c1.27-1.34,2.26-2.7,2.97-4.06.71-1.36,1.55-3.31,2.51-5.85L59.69.4h1.15l12.62,33.25c1.58,4.26,3.32,7.36,5.24,9.28v.12h-11.47v-.12c.54-.73.76-1.99.66-3.77-.1-1.79-.53-3.72-1.3-5.79l-2.36-6.22h-13.54l-1.21,3.23c-2,5.19-1.96,9.37.12,12.56v.12ZM57.5,9.33l-6.34,16.65h12.62l-6.28-16.65Z" fill="#1d1d1b"/>
    <path d="M80.09,43.04v-.12c1.46-2.04,2.43-3.79,2.91-5.27.48-1.48.72-3.5.72-6.08V8.93c-.15-1.84-.51-3.3-1.07-4.38-.56-1.07-1.57-2.27-3.02-3.57v-.12h10.49l14.81,32.79L119.16.86h10.2v.12c-1.65,1.5-2.75,2.86-3.29,4.09-.54,1.23-.81,3.07-.81,5.53v22.01c0,2.42.14,4.3.43,5.65.29,1.34.91,2.9,1.87,4.67v.12h-11.24v-.12c.92-1.77,1.54-3.34,1.84-4.72.31-1.38.46-3.25.46-5.59V5.36l-15.85,36.42h-1.21L84.87,5.13l.17,26.45c0,2.57.28,4.62.84,6.14.56,1.52,1.66,3.26,3.31,5.21v.12h-9.1Z" fill="#1d1d1b"/>
    <path d="M153.79,43.91c-5.57,0-10.57-2.16-15.01-6.48-4.44-4.32-6.66-9.46-6.66-15.41s2.22-11.11,6.66-15.47c4.44-4.36,9.44-6.54,15.01-6.54,3.61,0,7.09.97,10.43,2.91,3.34,1.94,6.07,4.62,8.18,8.04,2.11,3.42,3.17,7.11,3.17,11.06s-1.06,7.63-3.17,11.03c-2.11,3.4-4.84,6.06-8.18,7.98-3.34,1.92-6.82,2.88-10.43,2.88ZM153.79,42.75c4.8,0,8.41-1.88,10.83-5.65,2.42-3.76,3.63-8.8,3.63-15.1s-1.22-11.3-3.66-15.13c-2.44-3.82-6.04-5.73-10.8-5.73s-8.35,1.91-10.75,5.73c-2.4,3.82-3.6,8.86-3.6,15.13s1.2,11.24,3.6,15.04c2.4,3.8,5.98,5.7,10.75,5.7Z" fill="#1d1d1b"/>
    <path d="M202.88,12.1l-.52.17c-1.92-4.07-3.84-6.94-5.76-8.61s-3.98-2.51-6.17-2.51c-1.96,0-3.5.59-4.61,1.76-1.12,1.17-1.67,2.74-1.67,4.7,0,1.04.2,2.02.61,2.94s.85,1.69,1.35,2.3c.5.61,1.28,1.27,2.33,1.96s1.92,1.21,2.59,1.56,1.7.85,3.08,1.5c1.46.73,2.61,1.32,3.46,1.76.84.44,1.85,1.09,3.03,1.96,1.17.86,2.07,1.72,2.71,2.56.63.85,1.19,1.92,1.67,3.23.48,1.31.72,2.73.72,4.26,0,4.07-1.42,7.14-4.26,9.19-2.84,2.06-6.45,3.08-10.83,3.08-3.88,0-7.84-.75-11.87-2.25l-1.15-10.66.46-.17c2.19,4.11,4.44,7.13,6.74,9.05,2.31,1.92,4.78,2.88,7.43,2.88,2.5,0,4.42-.76,5.76-2.28,1.34-1.52,2.02-3.39,2.02-5.62,0-2.5-.78-4.53-2.33-6.11-1.56-1.57-3.76-3.05-6.6-4.44-1.19-.58-2.06-1-2.59-1.27-.54-.27-1.33-.71-2.36-1.33-1.04-.61-1.82-1.13-2.33-1.56-.52-.42-1.14-.99-1.87-1.7-.73-.71-1.26-1.4-1.58-2.07-.33-.67-.62-1.48-.89-2.42-.27-.94-.4-1.93-.4-2.97,0-3.73,1.27-6.49,3.8-8.3,2.54-1.81,5.71-2.71,9.51-2.71,3.19,0,6.32.56,9.39,1.67l1.15,10.43Z" fill="#1d1d1b"/>
  </g>
</svg>