<?xml version="1.0" encoding="UTF-8"?>
<svg id="Layer_1" data-name="Layer 1" xmlns="http://www.w3.org/2000/svg" viewBox="0 0 205.14 83.3">
  <g>
    <path d="M39.25,37.7c-.15.11-.67.47-1.55,1.06-.88.59-1.57,1.04-2.07,1.35-.5.31-1.28.74-2.36,1.29-1.07.56-2.09.98-3.05,1.26-.96.29-2.14.55-3.53.78-1.4.23-2.84.34-4.34.34-6.67,0-12.06-2.09-16.18-6.26C2.06,33.35,0,28.14,0,21.89S2.12,10.39,6.35,6.23C10.58,2.08,16.24,0,23.33,0c4.29,0,9.19.92,14.71,2.76l1.15,9.37-.52.17c-2.76-4.02-5.33-6.89-7.73-8.59-2.39-1.7-5.11-2.56-8.13-2.56-5.06,0-8.91,1.93-11.55,5.78-2.64,3.85-3.96,8.86-3.96,15.03,0,4.02.5,7.54,1.49,10.54,1,3.01,2.64,5.45,4.94,7.33,2.3,1.88,5.17,2.82,8.62,2.82,3.22,0,5.78-.79,7.7-2.36,1.92-1.57,2.87-3.83,2.87-6.78,0-2.03-.18-3.7-.55-5-.36-1.3-1.06-2.82-2.1-4.54v-.12h11.26v.12c-.96,1.76-1.58,3.31-1.87,4.65-.29,1.34-.43,3.22-.43,5.63v3.45Z" fill="#1d1d1b"/>
    <path d="M49.48,42.92h-7.76v-.11c1.26-1.34,2.25-2.69,2.96-4.05.71-1.36,1.54-3.3,2.5-5.83L59.53.4h1.15l12.58,33.16c1.57,4.25,3.31,7.34,5.23,9.25v.11h-11.44v-.11c.54-.73.76-1.98.66-3.76-.1-1.78-.53-3.71-1.29-5.77l-2.36-6.21h-13.5l-1.21,3.22c-1.99,5.17-1.95,9.35.12,12.53v.11ZM57.35,9.31l-6.32,16.61h12.58l-6.26-16.61Z" fill="#1d1d1b"/>
    <path d="M79.87,42.92v-.11c1.46-2.03,2.42-3.78,2.9-5.26.48-1.47.72-3.5.72-6.06V8.91c-.15-1.84-.51-3.29-1.06-4.37-.56-1.07-1.56-2.26-3.02-3.56v-.11h10.46l14.77,32.7L118.83.86h10.17v.11c-1.65,1.49-2.74,2.85-3.28,4.08-.54,1.23-.8,3.07-.8,5.52v21.95c0,2.41.14,4.29.43,5.63.29,1.34.91,2.89,1.87,4.65v.11h-11.21v-.11c.92-1.76,1.53-3.33,1.84-4.71.31-1.38.46-3.24.46-5.57V5.34l-15.8,36.32h-1.21L84.64,5.11l.17,26.38c0,2.57.28,4.61.83,6.12.55,1.51,1.66,3.25,3.3,5.2v.11h-9.08Z" fill="#1d1d1b"/>
    <path d="M153.37,43.79c-5.56,0-10.54-2.15-14.97-6.46-4.42-4.31-6.64-9.43-6.64-15.37s2.21-11.08,6.64-15.43c4.42-4.35,9.41-6.52,14.97-6.52,3.6,0,7.07.97,10.4,2.9,3.33,1.93,6.05,4.61,8.16,8.02,2.11,3.41,3.16,7.09,3.16,11.03s-1.05,7.61-3.16,11-4.83,6.04-8.16,7.96c-3.33,1.92-6.8,2.87-10.4,2.87ZM153.37,42.64c4.79,0,8.39-1.88,10.8-5.63,2.41-3.75,3.62-8.77,3.62-15.06s-1.22-11.27-3.65-15.08c-2.43-3.81-6.02-5.72-10.77-5.72s-8.32,1.91-10.72,5.72c-2.39,3.81-3.59,8.84-3.59,15.08s1.2,11.21,3.59,15c2.39,3.79,5.97,5.69,10.72,5.69Z" fill="#1d1d1b"/>
    <path d="M202.33,12.07l-.52.17c-1.92-4.06-3.83-6.92-5.75-8.59-1.92-1.67-3.96-2.5-6.15-2.5-1.95,0-3.49.58-4.6,1.75-1.11,1.17-1.67,2.73-1.67,4.68,0,1.03.2,2.01.6,2.93s.85,1.69,1.35,2.3c.5.61,1.27,1.26,2.33,1.95,1.05.69,1.92,1.21,2.59,1.55.67.34,1.7.84,3.07,1.49,1.46.73,2.6,1.31,3.45,1.75.84.44,1.85,1.09,3.02,1.95,1.17.86,2.07,1.71,2.7,2.56.63.84,1.19,1.92,1.67,3.22.48,1.3.72,2.72.72,4.25,0,4.06-1.42,7.12-4.25,9.17-2.84,2.05-6.44,3.07-10.8,3.07-3.87,0-7.82-.75-11.84-2.24l-1.15-10.63.46-.17c2.18,4.1,4.42,7.11,6.72,9.02,2.3,1.92,4.77,2.87,7.41,2.87,2.49,0,4.41-.76,5.75-2.27,1.34-1.51,2.01-3.38,2.01-5.6,0-2.49-.78-4.52-2.33-6.09-1.55-1.57-3.75-3.05-6.58-4.42-1.19-.57-2.05-1-2.59-1.26-.54-.27-1.32-.71-2.36-1.32-1.03-.61-1.81-1.13-2.33-1.55-.52-.42-1.14-.99-1.87-1.7-.73-.71-1.26-1.4-1.58-2.07-.33-.67-.62-1.47-.89-2.41-.27-.94-.4-1.92-.4-2.96,0-3.72,1.26-6.47,3.79-8.27,2.53-1.8,5.69-2.7,9.48-2.7,3.18,0,6.3.56,9.37,1.67l1.15,10.4Z" fill="#1d1d1b"/>
  </g>
  <g>
    <path d="M68.87,83.19h-19.17v-.07c.97-2.25,1.46-4.33,1.46-6.25v-14.75c0-1.17-.11-2.2-.34-3.07-.22-.87-.6-1.93-1.12-3.18v-.07h17.3l1.46,6.66-.3.11c-.25-.25-.91-1-1.98-2.25-1.07-1.25-1.94-2.17-2.6-2.77-.66-.6-1.24-.91-1.74-.94l-6.33-.26v12.65h3.22c.42,0,.87-.15,1.35-.45.47-.3.86-.61,1.16-.94.3-.32.68-.78,1.14-1.37.46-.59.79-.98.99-1.18h.34v8.46h-.34c-.12-.12-.44-.49-.95-1.09-.51-.6-.91-1.05-1.18-1.35-.28-.3-.66-.6-1.14-.9-.49-.3-.94-.45-1.37-.45h-3.22v12.88l6.66-.26c.95-.02,1.96-.43,3.03-1.22,1.07-.79,1.95-1.58,2.64-2.4.69-.81,1.48-1.84,2.38-3.09l.3.11-1.65,7.41Z" fill="#1d1d1b"/>
    <path d="M73.59,69.3c-.87-2.1-1.66-3.54-2.36-4.34v-.07h6.4v.07c-.62,1.07-.62,2.43,0,4.08l3.29,8.69,2.92-7.64c.72-1.95.64-3.66-.26-5.13v-.07h4.01v.07c-.65.7-1.16,1.36-1.54,1.98-.37.62-.79,1.5-1.24,2.62l-5.24,13.55h-.6l-5.39-13.81Z" fill="#1d1d1b"/>
    <path d="M103.19,77.65c-.52,1.65-1.42,2.98-2.7,4.01-1.27,1.02-2.85,1.54-4.72,1.54-2.47,0-4.49-.87-6.06-2.6-1.57-1.73-2.36-3.92-2.36-6.57,0-2.85.89-5.19,2.68-7.04,1.78-1.85,3.77-2.77,5.97-2.77s3.84.78,5.22,2.34c1.39,1.56,2.03,3.21,1.93,4.96h-12.02v.71c0,2.57.59,4.51,1.76,5.82,1.17,1.31,2.77,1.97,4.79,1.97,2.15,0,3.91-.84,5.28-2.51l.22.15ZM95.86,64.88c-1.37,0-2.45.56-3.24,1.67-.79,1.11-1.25,2.56-1.4,4.36l8.12-.19v-.41c0-3.62-1.16-5.43-3.48-5.43Z" fill="#1d1d1b"/>
    <path d="M111.47,83.3h-5.43v-.07c.57-1.7.86-4.09.86-7.19v-4.42c0-1.97-.56-3.59-1.68-4.87v-.07l5.28-1.98v3.59l.15.04c1.9-2.3,3.91-3.44,6.03-3.44,1.7,0,3,.48,3.91,1.44.91.96,1.37,2.29,1.37,3.99v5.69c0,1.87.05,3.3.15,4.29.1.99.34,1.97.71,2.94v.07h-5.43v-.07c.55-1.77.82-4.17.82-7.19v-4.87c0-1.17-.28-2.13-.84-2.88-.56-.75-1.43-1.12-2.6-1.12-1.57,0-2.95.62-4.12,1.87v6.96c0,3.32.27,5.73.82,7.23v.07Z" fill="#1d1d1b"/>
    <path d="M131.42,83.19c-2.8,0-4.19-1.51-4.19-4.53v-13.22h-2.02v-.22l5.43-4.68h.37v4.23h4.83v.67h-4.83v13.1c0,1.85.87,2.77,2.62,2.77.95,0,1.77-.21,2.47-.64l.11.15c-1.12,1.57-2.72,2.36-4.79,2.36Z" fill="#1d1d1b"/>
    <path d="M149.69,69.04l-.22.08c-1.65-2.82-3.58-4.23-5.8-4.23-.95,0-1.7.26-2.25.79-.55.52-.82,1.19-.82,1.98,0,.67.26,1.28.79,1.82.52.54,1.06.94,1.61,1.2.55.26,1.36.61,2.43,1.03,1.65.7,2.95,1.49,3.89,2.38.95.89,1.42,2.13,1.42,3.73,0,1.77-.65,3.11-1.95,4.02-1.3.91-2.98,1.37-5.05,1.37-1.8,0-3.63-.32-5.5-.97l-.37-4.79.22-.07c.95,1.82,1.91,3.14,2.88,3.95.97.81,2.06,1.22,3.26,1.22s2.01-.32,2.58-.95c.57-.64.86-1.39.86-2.27s-.31-1.63-.94-2.19c-.62-.56-1.63-1.14-3.03-1.74-.7-.3-1.14-.5-1.33-.6-.19-.1-.59-.31-1.2-.62-.61-.31-1.03-.59-1.25-.84-.22-.25-.51-.58-.86-.99-.35-.41-.59-.87-.71-1.37-.12-.5-.19-1.05-.19-1.65,0-1.75.62-3.03,1.87-3.86,1.25-.82,2.79-1.24,4.64-1.24s3.42.25,4.64.75l.38,4.08Z" fill="#1d1d1b"/>
  </g>
</svg>