<?xml version="1.0" encoding="UTF-8"?>
<svg id="Layer_1" data-name="Layer 1" xmlns="http://www.w3.org/2000/svg" viewBox="0 0 202.58 86.79">
  <g>
    <path d="M38.76,37.22c-.15.11-.66.46-1.53,1.05-.87.59-1.55,1.03-2.04,1.33-.49.3-1.27.73-2.33,1.28-1.06.55-2.06.96-3.01,1.25-.95.28-2.11.54-3.49.77-1.38.23-2.81.34-4.28.34-6.58,0-11.91-2.06-15.97-6.19C2.03,32.93,0,27.79,0,21.62S2.09,10.26,6.27,6.16C10.45,2.05,16.04,0,23.04,0c4.24,0,9.08.91,14.53,2.72l1.13,9.25-.51.17c-2.72-3.97-5.27-6.8-7.63-8.48-2.36-1.68-5.04-2.52-8.03-2.52-4.99,0-8.8,1.9-11.41,5.7s-3.92,8.75-3.92,14.84c0,3.97.49,7.44,1.48,10.41.98,2.97,2.61,5.38,4.88,7.24,2.27,1.85,5.11,2.78,8.51,2.78,3.18,0,5.71-.77,7.6-2.33,1.89-1.55,2.84-3.78,2.84-6.7,0-2-.18-3.65-.54-4.94-.36-1.29-1.05-2.78-2.07-4.48v-.11h11.12v.11c-.95,1.74-1.56,3.27-1.84,4.6-.28,1.32-.43,3.18-.43,5.56v3.4Z" fill="#1d1d1b"/>
    <path d="M48.86,42.39h-7.66v-.11c1.25-1.32,2.22-2.66,2.92-4,.7-1.34,1.52-3.26,2.47-5.76L58.79.4h1.14l12.43,32.74c1.55,4.2,3.27,7.24,5.16,9.14v.11h-11.29v-.11c.53-.72.75-1.96.65-3.72-.1-1.76-.52-3.66-1.28-5.7l-2.33-6.13h-13.33l-1.19,3.18c-1.97,5.11-1.93,9.23.11,12.37v.11ZM56.63,9.19l-6.24,16.4h12.43l-6.19-16.4Z" fill="#1d1d1b"/>
    <path d="M78.88,42.39v-.11c1.44-2,2.39-3.74,2.87-5.19.47-1.46.71-3.45.71-5.99V8.8c-.15-1.82-.5-3.25-1.05-4.31-.55-1.06-1.54-2.23-2.98-3.52v-.11h10.33l14.58,32.29L117.35.85h10.04v.11c-1.63,1.48-2.71,2.82-3.23,4.03-.53,1.21-.79,3.03-.79,5.45v21.68c0,2.38.14,4.24.43,5.56.28,1.32.9,2.86,1.84,4.6v.11h-11.06v-.11c.91-1.74,1.51-3.29,1.81-4.65s.46-3.2.46-5.5V5.28l-15.61,35.86h-1.19L83.58,5.05l.17,26.05c0,2.53.27,4.55.82,6.04.55,1.5,1.64,3.21,3.26,5.14v.11h-8.97Z" fill="#1d1d1b"/>
    <path d="M151.45,43.24c-5.49,0-10.41-2.13-14.78-6.38-4.37-4.26-6.55-9.31-6.55-15.18s2.18-10.94,6.55-15.24c4.37-4.29,9.3-6.44,14.78-6.44,3.56,0,6.98.96,10.27,2.87,3.29,1.91,5.98,4.55,8.06,7.92,2.08,3.37,3.12,7,3.12,10.9s-1.04,7.52-3.12,10.87c-2.08,3.35-4.77,5.97-8.06,7.86-3.29,1.89-6.71,2.84-10.27,2.84ZM151.45,42.1c4.73,0,8.29-1.85,10.67-5.56,2.38-3.71,3.58-8.66,3.58-14.87s-1.2-11.13-3.6-14.9c-2.4-3.76-5.95-5.65-10.64-5.65s-8.22,1.88-10.58,5.65c-2.36,3.76-3.55,8.73-3.55,14.9s1.18,11.06,3.55,14.81,5.89,5.62,10.58,5.62Z" fill="#1d1d1b"/>
    <path d="M199.8,11.92l-.51.17c-1.89-4.01-3.78-6.84-5.67-8.48-1.89-1.65-3.92-2.47-6.07-2.47-1.93,0-3.44.58-4.54,1.73-1.1,1.15-1.65,2.7-1.65,4.62,0,1.02.2,1.99.6,2.89.4.91.84,1.67,1.33,2.27.49.61,1.26,1.25,2.3,1.93,1.04.68,1.89,1.19,2.55,1.53.66.34,1.67.83,3.04,1.48,1.44.72,2.57,1.3,3.41,1.73.83.44,1.82,1.08,2.98,1.93,1.15.85,2.04,1.69,2.67,2.52.62.83,1.17,1.89,1.65,3.18.47,1.29.71,2.69.71,4.2,0,4.01-1.4,7.03-4.2,9.05-2.8,2.02-6.36,3.04-10.67,3.04-3.82,0-7.72-.74-11.69-2.21l-1.13-10.5.45-.17c2.16,4.05,4.37,7.02,6.64,8.91,2.27,1.89,4.71,2.84,7.32,2.84,2.46,0,4.35-.75,5.67-2.24,1.32-1.49,1.99-3.34,1.99-5.53,0-2.46-.77-4.46-2.3-6.02-1.53-1.55-3.7-3.01-6.5-4.37-1.17-.57-2.02-.98-2.55-1.25-.53-.26-1.31-.7-2.33-1.31-1.02-.6-1.79-1.12-2.3-1.53-.51-.42-1.13-.97-1.84-1.67-.72-.7-1.24-1.38-1.56-2.04-.32-.66-.62-1.46-.88-2.38-.26-.93-.4-1.9-.4-2.92,0-3.67,1.25-6.39,3.75-8.17,2.5-1.78,5.62-2.67,9.36-2.67,3.14,0,6.22.55,9.25,1.65l1.13,10.27Z" fill="#1d1d1b"/>
  </g>
  <g>
    <path d="M38.73,80.03c.48-.91.79-1.73.95-2.45s.24-1.68.24-2.89v-11.03c0-1.21-.08-2.18-.24-2.89s-.48-1.53-.95-2.45v-.06h7.6c5.03,0,7.54,1.74,7.54,5.22,0,1.29-.36,2.42-1.07,3.38-.72.96-1.8,1.67-3.25,2.13l3.55,6.95c.62,1.23,1.15,2.1,1.6,2.59.45.5,1.07.94,1.86,1.34v.21h-5.25l-5.37-10.53h-2.59v5.13c0,1.25.07,2.23.22,2.92.15.7.47,1.5.97,2.42v.06h-5.81v-.06ZM45.68,58.86h-.89c-.58,0-1.05,0-1.43.03v10.08h2.33c3.14,0,4.71-1.84,4.71-5.52,0-1.47-.35-2.6-1.06-3.4-.71-.79-1.92-1.19-3.65-1.19Z" fill="#1d1d1b"/>
    <path d="M69.15,76.12c-.42,1.31-1.13,2.38-2.15,3.19-1.01.81-2.27,1.22-3.76,1.22-1.97,0-3.58-.69-4.83-2.07-1.25-1.38-1.88-3.13-1.88-5.23,0-2.27.71-4.13,2.13-5.61,1.42-1.47,3.01-2.21,4.76-2.21s3.06.62,4.16,1.86c1.1,1.24,1.62,2.56,1.54,3.95h-9.57v.57c0,2.05.47,3.59,1.4,4.64.93,1.04,2.21,1.56,3.82,1.56,1.71,0,3.11-.67,4.2-2l.18.12ZM63.3,65.95c-1.09,0-1.95.44-2.58,1.33-.63.88-1,2.04-1.12,3.47l6.47-.15v-.33c0-2.88-.92-4.32-2.77-4.32ZM64.97,57.75l2.18,2.12-5.9,4.05-.24-.24,3.97-5.93Z" fill="#1d1d1b"/>
    <path d="M83.04,76.75c-.89,2.52-2.75,3.79-5.58,3.79-2.03,0-3.65-.67-4.86-2-1.21-1.33-1.82-3.1-1.82-5.31s.75-4.06,2.27-5.56,3.27-2.25,5.28-2.25c1.55,0,2.86.26,3.94.78l.39,3.31-.27.06c-.48-.83-1.16-1.64-2.04-2.43-.88-.78-1.7-1.18-2.46-1.18-1.27,0-2.29.54-3.04,1.62-.76,1.08-1.13,2.55-1.13,4.4s.47,3.41,1.4,4.46c.93,1.04,2.2,1.56,3.79,1.56,1.75,0,3.07-.46,3.97-1.37l.18.12Z" fill="#1d1d1b"/>
    <path d="M97.11,76.12c-.42,1.31-1.13,2.38-2.15,3.19-1.01.81-2.27,1.22-3.76,1.22-1.97,0-3.58-.69-4.83-2.07s-1.88-3.13-1.88-5.23c0-2.27.71-4.13,2.13-5.61,1.42-1.47,3.01-2.21,4.76-2.21s3.06.62,4.16,1.86c1.1,1.24,1.61,2.56,1.54,3.95h-9.57v.57c0,2.05.47,3.59,1.4,4.64.93,1.04,2.21,1.56,3.82,1.56,1.71,0,3.11-.67,4.2-2l.18.12ZM91.27,65.95c-1.09,0-1.95.44-2.58,1.33-.63.88-1,2.04-1.12,3.47l6.47-.15v-.33c0-2.88-.92-4.32-2.77-4.32Z" fill="#1d1d1b"/>
    <path d="M99.38,86.79v-.06c.46-1.35.69-3.26.69-5.72v-10.23c0-1.57-.45-2.86-1.34-3.88v-.06l4.21-1.58v2.62l.18.03c1.47-1.67,3.16-2.5,5.07-2.5,1.69,0,3.06.69,4.1,2.07,1.04,1.38,1.57,3.16,1.57,5.32s-.64,4.09-1.91,5.55-3.09,2.18-5.46,2.18c-1.33,0-2.47-.23-3.43-.69v1.13c0,2.62.22,4.54.66,5.75v.06h-4.32ZM106.77,80c1.19,0,2.15-.6,2.86-1.79.72-1.19,1.07-2.8,1.07-4.83s-.39-3.56-1.16-4.55c-.78-.98-1.84-1.48-3.19-1.48-1.27,0-2.38.41-3.31,1.22v5.99c0,1.89.38,3.27,1.13,4.13.75.86,1.62,1.3,2.59,1.3Z" fill="#1d1d1b"/>
    <path d="M120.22,80.53c-2.23,0-3.34-1.2-3.34-3.61v-10.53h-1.61v-.18l4.32-3.73h.3v3.37h3.85v.54h-3.85v10.44c0,1.47.7,2.21,2.09,2.21.76,0,1.41-.17,1.97-.51l.09.12c-.89,1.25-2.17,1.88-3.82,1.88Z" fill="#1d1d1b"/>
    <path d="M125.98,80.03c.46-1.93.69-3.84.69-5.73v-3.4c0-1.55-.45-2.83-1.34-3.85v-.21l4.32-1.58v9c0,1.47.04,2.61.12,3.41.08.8.26,1.58.54,2.34v.06h-4.32v-.06ZM129.27,59.18c.35.36.52.79.52,1.28s-.17.92-.52,1.27-.77.52-1.27.52-.92-.17-1.27-.52c-.35-.35-.52-.77-.52-1.27s.17-.92.52-1.28c.35-.36.77-.54,1.27-.54s.92.18,1.27.54Z" fill="#1d1d1b"/>
    <path d="M145.45,78.28c-1.51,1.5-3.31,2.25-5.4,2.25s-3.88-.75-5.38-2.25c-1.5-1.5-2.25-3.27-2.25-5.29s.76-3.77,2.28-5.29c1.52-1.52,3.3-2.28,5.35-2.28s3.86.76,5.38,2.28c1.52,1.52,2.28,3.28,2.28,5.29s-.75,3.79-2.27,5.29ZM136.78,77.94c.73,1.33,1.81,2,3.27,2s2.54-.67,3.28-2c.74-1.33,1.1-2.98,1.1-4.95s-.37-3.6-1.12-4.95-1.83-2.03-3.26-2.03-2.49.68-3.24,2.03-1.12,3-1.12,4.95.36,3.62,1.09,4.95Z" fill="#1d1d1b"/>
    <path d="M154.3,80.09h-4.32v-.06c.46-1.35.69-3.26.69-5.73v-3.52c0-1.57-.45-2.86-1.34-3.88v-.06l4.21-1.58v2.86l.12.03c1.51-1.83,3.11-2.74,4.8-2.74,1.35,0,2.39.38,3.12,1.15.73.77,1.09,1.82,1.09,3.18v4.53c0,1.49.04,2.63.12,3.41.08.79.27,1.57.57,2.34v.06h-4.32v-.06c.44-1.41.66-3.32.66-5.73v-3.88c0-.93-.22-1.7-.67-2.3-.45-.6-1.14-.89-2.07-.89-1.25,0-2.35.5-3.28,1.49v5.55c0,2.64.22,4.56.66,5.75v.06Z" fill="#1d1d1b"/>
    <path d="M174.88,69.26l-.18.06c-1.31-2.25-2.85-3.37-4.62-3.37-.75,0-1.35.21-1.79.63-.44.42-.66.94-.66,1.58,0,.54.21,1.02.63,1.45s.84.75,1.28.95c.44.21,1.08.48,1.94.82,1.31.56,2.34,1.19,3.1,1.89.75.71,1.13,1.7,1.13,2.97,0,1.41-.52,2.48-1.55,3.21-1.03.73-2.38,1.09-4.02,1.09-1.43,0-2.89-.26-4.38-.78l-.3-3.82.18-.06c.75,1.45,1.52,2.5,2.3,3.15.78.65,1.64.97,2.59.97s1.6-.25,2.06-.76.69-1.11.69-1.8-.25-1.3-.75-1.74-1.3-.91-2.42-1.39c-.56-.24-.91-.4-1.06-.48-.15-.08-.47-.24-.95-.49-.49-.25-.82-.47-1-.67-.18-.2-.41-.46-.69-.79s-.47-.69-.57-1.09-.15-.83-.15-1.31c0-1.39.5-2.42,1.49-3.07.99-.66,2.23-.98,3.7-.98s2.72.2,3.7.6l.3,3.25Z" fill="#1d1d1b"/>
  </g>
</svg>